<?xml version="1.0" encoding="UTF-8"?>
<svg version="1.1" xmlns="http://www.w3.org/2000/svg" width="96" height="96">
<path d="M0 0 C1.61672607 -0.00472824 1.61672607 -0.00472824 3.26611328 -0.009552 C4.43899902 -0.00752777 5.61188477 -0.00550354 6.8203125 -0.00341797 C8.0151123 -0.00437469 9.20991211 -0.00533142 10.44091797 -0.00631714 C12.9729823 -0.00699918 15.50504838 -0.00514325 18.03710938 -0.00097656 C21.9284251 0.00437132 25.81962539 -0.00092079 29.7109375 -0.00732422 C32.16406276 -0.00666344 34.61718794 -0.00538229 37.0703125 -0.00341797 C38.24319824 -0.0054422 39.41608398 -0.00746643 40.62451172 -0.009552 C41.7023291 -0.00639984 42.78014648 -0.00324768 43.890625 0 C44.84469238 0.00079559 45.79875977 0.00159119 46.78173828 0.00241089 C48.9453125 0.12939453 48.9453125 0.12939453 49.9453125 1.12939453 C50.03289253 3.12904435 50.05227826 5.13175563 50.04296875 7.13330078 C50.03974609 8.34824219 50.03652344 9.56318359 50.03320312 10.81494141 C50.02063477 12.7340332 50.02063477 12.7340332 50.0078125 14.69189453 C50.00330078 15.97515625 49.99878906 17.25841797 49.99414062 18.58056641 C49.98230795 21.76355475 49.96582318 24.94645215 49.9453125 28.12939453 C51.55212891 28.11199219 51.55212891 28.11199219 53.19140625 28.09423828 C54.58853993 28.08486155 55.98567549 28.07576122 57.3828125 28.06689453 C58.08986328 28.05851562 58.79691406 28.05013672 59.52539062 28.04150391 C61.33224809 28.03285866 63.13918853 28.07719442 64.9453125 28.12939453 C66.6782423 29.86232433 66.07351296 32.09153789 66.08425903 34.40087891 C66.08122269 35.50399414 66.08122269 35.50399414 66.078125 36.62939453 C66.07908173 37.38027344 66.08003845 38.13115234 66.08102417 38.90478516 C66.08170588 40.4952808 66.07985222 42.08577921 66.07568359 43.67626953 C66.07033517 46.11904108 66.07562884 48.56162874 66.08203125 51.00439453 C66.08137047 52.54606161 66.0800893 54.08772857 66.078125 55.62939453 C66.08014923 56.36480469 66.08217346 57.10021484 66.08425903 57.85791016 C66.06026411 63.01444292 66.06026411 63.01444292 64.9453125 64.12939453 C63.2953125 64.12939453 61.6453125 64.12939453 59.9453125 64.12939453 C59.9453125 68.74939453 59.9453125 73.36939453 59.9453125 78.12939453 C55.70105475 76.00726565 54.96435554 75.07157032 52.6953125 71.12939453 C51.91414063 69.79908203 51.91414063 69.79908203 51.1171875 68.44189453 C49.9453125 66.12939453 49.9453125 66.12939453 49.9453125 64.12939453 C48.18102905 64.13724976 48.18102905 64.13724976 46.38110352 64.14526367 C42.03329219 64.16331116 37.6854842 64.17482561 33.33764648 64.18432617 C31.4528752 64.18936697 29.56810785 64.19619951 27.68334961 64.20483398 C24.98029614 64.2169107 22.27729419 64.22262522 19.57421875 64.22705078 C18.30234459 64.23479271 18.30234459 64.23479271 17.004776 64.24269104 C14.98460182 64.24288648 12.96453316 64.19145664 10.9453125 64.12939453 C9.26230581 62.44638785 9.71722173 60.30930726 9.62890625 58.00048828 C9.58701172 56.96601562 9.54511719 55.93154297 9.50195312 54.86572266 C9.46263672 53.77710938 9.42332031 52.68849609 9.3828125 51.56689453 C9.33962891 50.47441406 9.29644531 49.38193359 9.25195312 48.25634766 C9.14549182 45.54749889 9.04347734 42.83855461 8.9453125 40.12939453 C8.46320312 40.85126953 7.98109375 41.57314453 7.484375 42.31689453 C6.85273438 43.24501953 6.22109375 44.17314453 5.5703125 45.12939453 C4.94382812 46.05751953 4.31734375 46.98564453 3.671875 47.94189453 C3.10210937 48.66376953 2.53234375 49.38564453 1.9453125 50.12939453 C1.2853125 50.12939453 0.6253125 50.12939453 -0.0546875 50.12939453 C-0.0546875 45.50939453 -0.0546875 40.88939453 -0.0546875 36.12939453 C-1.7046875 36.12939453 -3.3546875 36.12939453 -5.0546875 36.12939453 C-6.7876173 34.39646474 -6.18288796 32.16725117 -6.19363403 29.85791016 C-6.1916098 29.1225 -6.18958557 28.38708984 -6.1875 27.62939453 C-6.18845673 26.87851562 -6.18941345 26.12763672 -6.19039917 25.35400391 C-6.19108088 23.76350826 -6.18922722 22.17300986 -6.18505859 20.58251953 C-6.17971017 18.13974799 -6.18500384 15.69716032 -6.19140625 13.25439453 C-6.19074547 11.71272746 -6.1894643 10.1710605 -6.1875 8.62939453 C-6.18952423 7.89398437 -6.19154846 7.15857422 -6.19363403 6.40087891 C-6.16561941 0.38051038 -5.94057088 0.00495382 0 0 Z " fill="#2AAFE7" transform="translate(18.0546875,11.87060546875)"/>
<path d="M0 0 C2.47923801 -0.02685095 4.9581884 -0.04676547 7.4375 -0.0625 C8.14455078 -0.07087891 8.85160156 -0.07925781 9.58007812 -0.08789062 C11.38693559 -0.09653588 13.19387603 -0.05220011 15 0 C16.7329298 1.7329298 16.12820046 3.96214336 16.13894653 6.27148438 C16.1369223 7.00689453 16.13489807 7.74230469 16.1328125 8.5 C16.13376923 9.25087891 16.13472595 10.00175781 16.13571167 10.77539062 C16.13639338 12.36588627 16.13453972 13.95638467 16.13037109 15.546875 C16.12502267 17.98964655 16.13031634 20.43223421 16.13671875 22.875 C16.13605797 24.41666707 16.1347768 25.95833403 16.1328125 27.5 C16.13483673 28.23541016 16.13686096 28.97082031 16.13894653 29.72851562 C16.11495161 34.88504839 16.11495161 34.88504839 15 36 C13.35 36 11.7 36 10 36 C10 40.62 10 45.24 10 50 C5.75574225 47.87787112 5.01904304 46.94217579 2.75 43 C2.22921875 42.113125 1.7084375 41.22625 1.171875 40.3125 C0 38 0 38 0 36 C-1.76428345 36.00785522 -1.76428345 36.00785522 -3.56420898 36.01586914 C-7.91202031 36.03391663 -12.2598283 36.04543108 -16.60766602 36.05493164 C-18.4924373 36.05997244 -20.37720465 36.06680498 -22.26196289 36.07543945 C-24.96501636 36.08751617 -27.66801831 36.09323068 -30.37109375 36.09765625 C-31.21900986 36.10281754 -32.06692596 36.10797882 -32.9405365 36.11329651 C-34.96071068 36.11349195 -36.98077934 36.06206211 -39 36 C-40 35 -40 35 -40.11352539 32.40795898 C-40.10828857 31.28204346 -40.10305176 30.15612793 -40.09765625 28.99609375 C-40.09515869 27.90224365 -40.09266113 26.80839355 -40.09008789 25.68139648 C-40.08098389 24.28091064 -40.07187988 22.8804248 -40.0625 21.4375 C-40.041875 17.003125 -40.02125 12.56875 -40 8 C-27.46 7.67 -14.92 7.34 -2 7 C-1.34 4.69 -0.68 2.38 0 0 Z " fill="#0A65B0" transform="translate(68,40)"/>
<path d="M0 0 C10.56 0 21.12 0 32 0 C32 1.32 32 2.64 32 4 C21.44 4 10.88 4 0 4 C0 2.68 0 1.36 0 0 Z " fill="#FDFEFE" transform="translate(24,24)"/>
<path d="M0 0 C9.24 0 18.48 0 28 0 C28 1.32 28 2.64 28 4 C18.76 4 9.52 4 0 4 C0 2.68 0 1.36 0 0 Z " fill="#FDFEFE" transform="translate(24,32)"/>
<path d="M0 0 C1.30066406 -0.00128906 2.60132813 -0.00257812 3.94140625 -0.00390625 C4.96258545 -0.00076416 4.96258545 -0.00076416 6.00439453 0.00244141 C8.08503515 0.0077901 10.16545989 0.0024957 12.24609375 -0.00390625 C14.19708984 -0.00197266 14.19708984 -0.00197266 16.1875 0 C17.39083984 0.00112793 18.59417969 0.00225586 19.83398438 0.00341797 C22.59375 0.1328125 22.59375 0.1328125 23.59375 1.1328125 C23.71875 3.6328125 23.71875 3.6328125 23.59375 6.1328125 C21.73660943 7.98995307 18.66867951 7.26329931 16.1875 7.265625 C14.88683594 7.26691406 13.58617187 7.26820312 12.24609375 7.26953125 C11.56530762 7.26743652 10.88452148 7.2653418 10.18310547 7.26318359 C8.10246485 7.2578349 6.02204011 7.2631293 3.94140625 7.26953125 C1.99041016 7.26759766 1.99041016 7.26759766 0 7.265625 C-1.20333984 7.26449707 -2.40667969 7.26336914 -3.64648438 7.26220703 C-6.40625 7.1328125 -6.40625 7.1328125 -7.40625 6.1328125 C-7.53125 3.6328125 -7.53125 3.6328125 -7.40625 1.1328125 C-5.54910943 -0.72432807 -2.48117951 0.00232569 0 0 Z M-6.40625 1.1328125 C-6.40625 2.4528125 -6.40625 3.7728125 -6.40625 5.1328125 C2.83375 5.1328125 12.07375 5.1328125 21.59375 5.1328125 C21.59375 3.8128125 21.59375 2.4928125 21.59375 1.1328125 C12.35375 1.1328125 3.11375 1.1328125 -6.40625 1.1328125 Z " fill="#259FD2" transform="translate(30.40625,30.8671875)"/>
</svg>
